<svg width="1080" height="1080" viewBox="0 0 1080 1080" fill="none" xmlns="http://www.w3.org/2000/svg">
<g clip-path="url(#clip0_337_2)">
<path d="M1079.24 746.062V987.779H474.737C298.609 987.779 144.823 890.571 62.5654 746.062C26.167 682.011 4.77557 610.546 0 537.042L0 471.737C2.14763 438.193 7.78553 404.964 16.8224 372.588C73.3388 169.613 256.973 21 474.693 21C692.546 21 876.136 169.701 932.608 372.544H674.134C631.747 306.401 558.276 262.673 474.737 262.673C391.199 262.673 317.772 306.401 275.341 372.544C262.226 392.91 252.253 415.134 245.758 438.467C239.805 459.935 236.804 482.112 236.839 504.389C236.741 537.204 243.303 569.697 256.129 599.905C268.954 630.113 287.777 657.408 311.458 680.139C355.271 722.442 413.816 746.079 474.737 746.062H1079.2H1079.24Z" fill="#FD366E"/>
<path d="M1079.24 438.422V680.139H637.972C661.662 657.411 680.492 630.118 693.325 599.91C706.159 569.702 712.728 537.207 712.636 504.389C712.657 482.11 709.642 459.932 703.673 438.467H1079.24V438.422Z" fill="#FD366E"/>
</g>
<defs>
<clipPath id="clip0_337_2">
<rect width="1080" height="1059" fill="white" transform="translate(0 21)"/>
</clipPath>
</defs>
</svg>
